Coordinates
version=1
nRows=13
nColumns=63
inDegrees=yes

Units are S.I. units (second, meters, Newtons, ...)
If the header above contains a line with 'inDegrees', this indicates whether rotational values are in degrees (yes) or radians (no).

endheader
time	pelvis_tilt	pelvis_list	pelvis_rotation	pelvis_tx	pelvis_ty	pelvis_tz	hip_flexion_r	hip_adduction_r	hip_rotation_r	knee_angle_r	knee_angle_r_beta	ankle_angle_r	subtalar_angle_r	mtp_angle_r	hip_flexion_l	hip_adduction_l	hip_rotation_l	knee_angle_l	knee_angle_l_beta	ankle_angle_l	subtalar_angle_l	mtp_angle_l	L5_S1_Flex_Ext	L5_S1_Lat_Bending	L5_S1_axial_rotation	L4_L5_Flex_Ext	L4_L5_Lat_Bending	L4_L5_axial_rotation	L3_L4_Flex_Ext	L3_L4_Lat_Bending	L3_L4_axial_rotation	L2_L3_Flex_Ext	L2_L3_Lat_Bending	L2_L3_axial_rotation	L1_L2_Flex_Ext	L1_L2_Lat_Bending	L1_L2_axial_rotation	L1_T12_Flex_Ext	L1_T12_Lat_Bending	L1_T12_axial_rotation	Abs_r3	Abs_r2	Abs_r1	Abs_t1	Abs_t2	neck_flexion	neck_bending	neck_rotation	arm_flex_r	arm_add_r	arm_rot_r	elbow_flex_r	pro_sup_r	wrist_flex_r	wrist_dev_r	arm_flex_l	arm_add_l	arm_rot_l	elbow_flex_l	pro_sup_l	wrist_flex_l	wrist_dev_l
17.813953	2.021991	-4.692650	133.214809	0.159486	0.399470	0.687552	-5.309886	1.997746	-18.463678	14.192620	0.247708	35.233752	-8.038661	0.000000	1.513256	-5.640276	18.758830	15.139722	0.264238	41.438045	12.424468	0.000000	0.165746	0.641496	-1.113797	0.307806	0.853190	-1.183410	0.272303	1.559734	-1.183410	0.189431	1.559734	-0.974573	0.153911	1.308139	-0.904960	0.094707	0.993677	-0.835348	1.183904	7.256732	-6.194607	0.000000	0.000000	2.845098	-4.956287	-21.869432	48.610528	6.106730	219.966011	0.618559	2.369239	-33.689678	-18.007484	49.974975	-11.075283	65.219489	102.758692	81.815765	6.183567	16.357322
17.837209	3.734623	-4.506864	132.623631	0.155013	0.396486	0.689211	-4.244952	2.842763	-18.939268	14.319986	0.249931	35.441492	-6.672372	0.000000	2.466423	-6.655919	18.712032	15.522329	0.270916	42.259832	11.376698	0.000000	0.256423	0.828907	-0.433723	0.476203	1.102447	-0.460831	0.421277	2.015406	-0.460831	0.293066	2.015406	-0.379508	0.238114	1.690308	-0.352400	0.146520	1.283978	-0.325292	1.831602	9.376767	-2.412237	0.000000	0.000000	4.196546	-4.606350	-27.731715	49.190067	1.742636	215.013294	0.759265	2.707545	-27.300396	-16.944828	51.523227	-4.974589	67.817695	100.165130	80.817219	3.701806	15.347045
17.860465	5.174459	-4.289316	132.078655	0.151503	0.394038	0.691139	-3.374540	3.555914	-19.620591	14.418828	0.251656	35.674459	-5.240122	0.000000	3.246151	-7.540891	18.721638	15.884360	0.277234	42.909773	10.352306	0.000000	0.318737	0.990568	0.078415	0.591927	1.317455	0.083315	0.523653	2.408467	0.083315	0.364285	2.408467	0.068613	0.295979	2.019966	0.063712	0.182126	1.534390	0.058811	2.276708	11.205502	0.436118	0.000000	0.000000	5.417936	-4.322334	-32.303732	50.072727	-1.774608	210.896634	0.885009	3.017200	-21.183142	-16.172610	52.089074	0.016424	69.559838	97.916503	78.909617	1.421538	14.141561
17.883721	6.219201	-4.106716	131.611055	0.149315	0.392280	0.693099	-2.745687	4.041452	-20.529855	14.479831	0.252721	35.915508	-3.772309	0.000000	3.806669	-8.193128	18.809181	16.173867	0.282287	43.299668	9.412289	0.000000	0.349959	1.107948	0.422012	0.649908	1.473571	0.448387	0.574947	2.693864	0.448387	0.399968	2.693864	0.369260	0.324972	2.259327	0.342884	0.199966	1.716211	0.316509	2.499721	12.533327	2.347102	0.000000	0.000000	6.489549	-4.087740	-35.458560	50.984385	-4.257615	207.504812	0.990285	3.276480	-15.520081	-15.696001	51.741923	3.672908	70.618797	96.101498	76.169479	-0.261462	12.832114
17.906977	6.890327	-3.995997	131.222118	0.148429	0.391186	0.694865	-2.343509	4.318414	-21.527929	14.464863	0.252459	36.121798	-2.403502	0.000000	4.180161	-8.609941	18.973125	16.382056	0.285921	43.438498	8.580566	0.000000	0.355193	1.182580	0.611391	0.659628	1.572831	0.649603	0.583546	2.875324	0.649603	0.405950	2.875324	0.534968	0.329832	2.411516	0.496756	0.202957	1.831816	0.458544	2.537105	13.377577	3.400376	0.000000	0.000000	7.372315	-3.940879	-37.122673	51.750424	-5.672714	205.162436	1.071449	3.483380	-10.754169	-15.469349	50.876110	5.935271	71.454073	94.785488	73.244166	-1.682325	11.404318
17.930233	7.212479	-3.986251	130.883719	0.148619	0.390652	0.696223	-2.151416	4.387257	-22.498539	14.355724	0.250555	36.264619	-1.207080	0.000000	4.375832	-8.782217	19.177766	16.474654	0.287537	43.353272	7.878096	0.000000	0.341658	1.216138	0.670981	0.634493	1.617464	0.712917	0.561310	2.956919	0.712917	0.390481	2.956919	0.587108	0.317264	2.479949	0.545172	0.195223	1.883798	0.503235	2.440428	13.757199	3.731792	0.000000	0.000000	8.018511	-3.849946	-37.333939	52.287899	-6.065759	203.955753	1.125085	3.629790	-7.119944	-15.489373	49.810434	6.878318	72.215301	93.910380	71.106218	-2.662440	9.673509
17.953488	7.236765	-4.093425	130.558849	0.149566	0.390475	0.697065	-2.138963	4.256888	-23.383823	14.140517	0.246799	36.360269	-0.121745	0.000000	4.428821	-8.717642	19.378644	16.453547	0.287169	43.113416	7.311704	0.000000	0.317957	1.211883	0.629403	0.590477	1.611805	0.668741	0.522371	2.946573	0.668741	0.363393	2.946573	0.550728	0.295255	2.471272	0.511390	0.181680	1.877207	0.472052	2.271133	13.709065	3.500551	0.000000	0.000000	8.419106	-3.734903	-36.370765	52.592305	-5.555759	203.790929	1.153376	3.721329	-4.820034	-15.771181	48.757959	6.696387	72.968653	93.360420	70.071216	-3.466108	7.619981
17.976744	7.060564	-4.294573	130.215037	0.150868	0.390466	0.697424	-2.261325	3.992517	-24.081905	13.828381	0.241351	36.380655	0.821687	0.000000	4.382374	-8.477948	19.542531	16.344571	0.285267	42.815013	6.867286	0.000000	0.292427	1.182195	0.522898	0.543067	1.572319	0.555579	0.480429	2.874389	0.555579	0.334215	2.874389	0.457536	0.271548	2.410732	0.424855	0.167093	1.831220	0.392174	2.088778	13.373225	2.908202	0.000000	0.000000	8.591281	-3.577768	-34.492100	52.695019	-4.374399	204.642049	1.154221	3.738282	-4.044397	-16.179405	47.778077	5.765710	73.580511	92.916271	69.866347	-3.790121	5.530996
18.000000	6.780517	-4.555889	129.830151	0.152191	0.390447	0.697372	-2.483210	3.673758	-24.467074	13.414002	0.234118	36.313070	1.570017	0.000000	4.281537	-8.135634	19.643518	16.189929	0.282568	42.551943	6.531841	0.000000	0.269497	1.139066	0.393738	0.500484	1.514957	0.418347	0.442757	2.769524	0.418347	0.308009	2.769524	0.344521	0.250255	2.322783	0.319912	0.153991	1.764413	0.295304	1.924993	12.885339	2.189855	0.000000	0.000000	8.633105	-3.361671	-32.095127	52.636249	-2.822500	206.344238	1.130165	3.700582	-4.895733	-16.568745	46.911072	4.476429	73.955537	92.408369	70.267599	-3.447006	3.589415
18.023256	6.459792	-4.852903	129.387089	0.153379	0.390314	0.697034	-2.758507	3.348911	-24.451299	12.929532	0.225663	36.174117	2.100643	0.000000	4.160038	-7.739401	19.681526	16.025136	0.279691	42.374101	6.256625	0.000000	0.250766	1.090676	0.271042	0.465698	1.450599	0.287982	0.411984	2.651870	0.287982	0.286601	2.651870	0.237162	0.232862	2.224107	0.220222	0.143288	1.689457	0.203282	1.791200	12.337947	1.507455	0.000000	0.000000	8.634897	-3.080378	-29.506182	52.456740	-1.147136	208.867791	1.083104	3.625915	-7.228993	-16.936083	46.132926	3.053702	73.957326	91.778184	71.263245	-2.367313	1.820155
18.046512	6.075593	-5.172717	128.930892	0.154507	0.390134	0.696497	-3.095948	3.014441	-24.069900	12.391982	0.216281	35.971064	2.395998	0.000000	4.013987	-7.285060	19.665649	15.867918	0.276947	42.263927	6.061839	0.000000	0.232940	1.036582	0.139922	0.432592	1.378654	0.148668	0.382697	2.520345	0.148668	0.266227	2.520345	0.122432	0.216308	2.113798	0.113687	0.133102	1.605665	0.104942	1.663865	11.726023	0.778206	0.000000	0.000000	8.565330	-2.791884	-26.640029	52.217188	0.642330	211.128559	1.011963	3.486054	-8.811683	-17.760941	45.379023	1.458721	73.513294	91.084530	72.880497	-0.990127	0.176319
18.069767	5.655272	-5.507015	128.475071	0.155526	0.389886	0.695879	-3.463093	2.680444	-23.401796	11.827152	0.206423	35.716186	2.473877	0.000000	3.870057	-6.782418	19.653860	15.742919	0.274766	42.203030	5.858570	0.000000	0.216210	0.979141	0.006722	0.401524	1.302258	0.007143	0.355211	2.380684	0.007143	0.247106	2.380684	0.005882	0.200773	1.996665	0.005462	0.123542	1.516690	0.005042	1.544367	11.076242	0.037388	0.000000	0.000000	8.465132	-2.493067	-23.687595	51.909952	2.410033	213.149913	0.923552	3.289781	-10.481939	-18.916351	44.616022	-0.179745	72.622114	90.288500	75.129123	0.351349	-1.386326
18.093023	5.209592	-5.840559	128.012218	0.156524	0.389617	0.695314	-3.819098	2.333354	-22.601450	11.306869	0.197342	35.428414	2.429820	0.000000	3.741077	-6.257462	19.566832	15.663088	0.273372	42.182954	5.723442	0.000000	0.196837	0.919993	-0.132443	0.365546	1.223590	-0.140720	0.323383	2.236870	-0.140720	0.224965	2.236870	-0.115887	0.182783	1.876049	-0.107610	0.112473	1.425069	-0.099332	1.405986	10.407141	-0.736607	0.000000	0.000000	8.367616	-2.221138	-20.731389	51.594504	4.151662	215.520480	0.797949	3.036133	-12.816787	-20.032330	43.788314	-1.791856	71.297643	89.356723	77.954685	1.335456	-2.923102
